#N canvas 44 45 829 629 12;
#X obj 365 85 r mute-\$1;
#X obj 365 112 == 0;
#X obj 365 177 tgl 15 0 empty empty empty 17 7 0 10 -262144 -1 -1 0
1;
#X obj 446 86 r rec-loop-\$1;
#X obj 446 111 == 1;
#X obj 365 154 &;
#X obj 427 111 bng 15 250 50 0 empty empty empty 17 7 0 10 -262144
-1 -1;
#X obj 427 134 delay 5;
#X text 549 50 additional bang needed on &;
#X text 549 67 because & object only reads the;
#X text 549 84 right input after a bang on the left;
#X obj 516 398 vline~;
#X msg 516 372 \$1 \, \$2 \$3;
#X obj 516 346 pack f f f;
#X obj 549 322 +;
#X obj 583 251 loadbang;
#X obj 516 299 f;
#X obj 516 513 outlet~;
#X obj 552 231 r sample-rate;
#X obj 567 300 * 44.1;
#X obj 516 424 tabread4~ loop-\$1;
#X msg 583 274 500;
#X text 529 138 fade-out part of the loop;
#X text 528 157 on start loop -> play fade-out;
#X text 664 274 fade-out duration \; 500ms;
#X obj 516 490 *~;
#X obj 115 7 r counter;
#X obj 195 283 r sample-rate;
#X obj 177 258 r nloops-\$1;
#X obj 177 349 *;
#X obj 144 377 pack f f f;
#X obj 229 328 r loop-time;
#X obj 211 349 *;
#X msg 144 349 0;
#X msg 144 404 \$1 \, \$2 \$3;
#X obj 144 434 vline~;
#X obj 144 463 tabread4~ loop-\$1;
#X obj 144 538 *~;
#X obj 144 567 outlet~;
#X obj 534 210 r nloops-\$1;
#X obj 534 253 *;
#X obj 261 144 r rec-loop-\$1;
#X msg 261 176 1;
#X obj 160 123 loadbang;
#X msg 160 174 0;
#X obj 171 145 r clear-\$1;
#X obj 166 210 spigot;
#X obj 115 210 spigot;
#X msg 207 175 1;
#X msg 296 175 0;
#X obj 216 70 r nloops-\$1;
#X obj 266 7 loadbang;
#X obj 187 7 r clear-\$1;
#X msg 222 33 1;
#X obj 115 155 bng 15 250 50 0 empty empty empty 17 7 0 10 -262144
-1 -1;
#X obj 115 34 sel 0;
#X obj 115 62 f;
#X obj 149 62 + 1;
#X obj 115 93 select;
#X msg 187 33 0;
#X msg 75 33 0;
#X obj 41 543 line;
#X obj 41 521 t a b;
#X msg 41 497 0 \, 1 5;
#X obj 144 515 *~;
#X obj 410 467 t a b;
#X obj 410 490 line;
#X obj 516 468 *~;
#X obj 226 122 s loop-bang-\$1;
#X obj 516 186 r loop-bang-\$1;
#X msg 410 444 1 \, 0 500;
#X text 227 103 global bang \$1;
#X obj 211 307 r cur-nloops-\$1;
#X text 38 586 fade in;
#X obj 166 235 delay 3;
#X obj 41 566 s loop-vol-\$1;
#X obj 162 488 r loop-vol-\$1;
#X obj 534 446 r fade-out-\$1;
#X obj 410 513 s fade-out-\$1;
#X obj 179 94 f;
#X text 225 51 when nloops is received \, only then use it;
#X obj 3 30 - 1;
#X obj 3 7 r nloops-cor-\$1;
#X msg 3 55 0;
#X obj 3 78 s loop-vol-\$1;
#X text 0 96 apply correction;
#X connect 0 0 1 0;
#X connect 1 0 5 0;
#X connect 2 0 25 1;
#X connect 2 0 37 1;
#X connect 3 0 4 0;
#X connect 3 0 6 0;
#X connect 4 0 5 1;
#X connect 5 0 2 0;
#X connect 6 0 7 0;
#X connect 7 0 5 0;
#X connect 11 0 20 0;
#X connect 12 0 11 0;
#X connect 13 0 12 0;
#X connect 14 0 13 1;
#X connect 15 0 21 0;
#X connect 16 0 14 0;
#X connect 16 0 13 0;
#X connect 18 0 40 1;
#X connect 19 0 14 1;
#X connect 20 0 67 0;
#X connect 21 0 19 0;
#X connect 21 0 13 2;
#X connect 25 0 17 0;
#X connect 26 0 55 0;
#X connect 27 0 29 1;
#X connect 28 0 29 0;
#X connect 28 0 32 0;
#X connect 29 0 30 1;
#X connect 30 0 34 0;
#X connect 31 0 32 1;
#X connect 32 0 30 2;
#X connect 33 0 30 0;
#X connect 34 0 35 0;
#X connect 35 0 36 0;
#X connect 36 0 64 0;
#X connect 37 0 38 0;
#X connect 39 0 40 0;
#X connect 40 0 16 1;
#X connect 41 0 42 0;
#X connect 41 0 49 0;
#X connect 42 0 47 1;
#X connect 43 0 44 0;
#X connect 43 0 48 0;
#X connect 44 0 47 1;
#X connect 45 0 44 0;
#X connect 45 0 48 0;
#X connect 46 0 74 0;
#X connect 46 0 63 0;
#X connect 47 0 33 0;
#X connect 47 0 63 0;
#X connect 48 0 46 1;
#X connect 49 0 46 1;
#X connect 50 0 79 1;
#X connect 51 0 53 0;
#X connect 51 0 59 0;
#X connect 52 0 53 0;
#X connect 52 0 59 0;
#X connect 53 0 79 1;
#X connect 53 0 58 1;
#X connect 54 0 46 0;
#X connect 54 0 47 0;
#X connect 55 0 56 0;
#X connect 56 0 57 0;
#X connect 56 0 58 0;
#X connect 57 0 56 1;
#X connect 58 0 54 0;
#X connect 58 0 60 0;
#X connect 58 0 68 0;
#X connect 58 0 79 0;
#X connect 59 0 56 0;
#X connect 60 0 56 0;
#X connect 61 0 75 0;
#X connect 62 0 61 0;
#X connect 63 0 62 0;
#X connect 64 0 37 0;
#X connect 65 0 66 0;
#X connect 66 0 78 0;
#X connect 67 0 25 0;
#X connect 69 0 16 0;
#X connect 69 0 70 0;
#X connect 70 0 65 0;
#X connect 72 0 29 0;
#X connect 72 0 32 0;
#X connect 74 0 33 0;
#X connect 76 0 64 1;
#X connect 77 0 67 1;
#X connect 79 0 58 1;
#X connect 81 0 56 0;
#X connect 81 0 83 0;
#X connect 82 0 81 0;
#X connect 83 0 84 0;
