#N canvas 506 209 901 509 12;
#X obj 88 271 phasor~;
#X obj 88 299 *~;
#X obj 139 300 * 44.1;
#X msg 5 160 0;
#X obj 88 162 bng 15 250 50 0 empty empty empty 17 7 0 10 -262144 -1
-1;
#X text 94 6 mute/turn on loop;
#X obj 107 189 t f f;
#X text 148 279 loop duration * SR;
#X obj 107 161 r loop-time;
#X obj 107 217 expr 1000 / $f1;
#X obj 387 54 r loop-position;
#X obj 387 197 spigot;
#X obj 88 389 outlet~;
#X obj 88 328 tabread4~ loop-\$1;
#X obj 446 80 r mute-\$1;
#X obj 585 103 loadbang;
#X msg 585 128 0;
#X text 386 28 only send loop position when unmuted;
#X obj 446 107 == 0;
#X obj 426 173 tgl 15 0 empty empty empty 17 7 0 10 -262144 -1 -1 0
1;
#X obj 526 79 r rec-loop-\$1;
#X obj 526 104 == 1;
#X obj 426 150 &;
#X obj 5 29 r clear-\$1;
#X obj 488 107 bng 15 250 50 0 empty empty empty 17 7 0 10 -262144
-1 -1;
#X obj 488 130 delay 5;
#X text 629 43 additional bang needed on &;
#X text 629 60 because & object only reads the;
#X text 629 77 right input after a bang on the left;
#X obj 156 391 s~ read-loop-\$1;
#X text 191 374 for overdub;
#X obj 546 406 vline~;
#X msg 546 380 \$1 \, \$2 \$3;
#X obj 546 354 pack f f f;
#X obj 579 329 +;
#X obj 665 259 loadbang;
#X obj 546 289 f;
#X obj 546 232 sel 0;
#X obj 546 179 r counter;
#X obj 546 206 spigot;
#X obj 546 481 outlet~;
#X obj 564 258 r sample-rate;
#X obj 597 306 * 44.1;
#X obj 546 434 tabread4~ loop-\$1;
#X msg 596 283 500;
#X obj 86 29 r rec-loop-\$1;
#X obj 194 30 r mute-\$1;
#X obj 194 56 sel 0 1;
#X obj 86 57 sel 0 1;
#X obj 88 125 spigot;
#X msg 28 54 0;
#X msg 127 80 1;
#X obj 88 244 f;
#X text 219 77 mute/unmute;
#X text 142 121 clear sends 0 to mute-\$1;
#X text 142 135 avoid starting loop with spigot;
#X text 619 179 fade-out part of the loop;
#X text 594 233 on start loop -> play fade-out;
#X text 651 280 fade-out duration \; 500ms;
#X obj 88 362 *~;
#X msg 12 330 1;
#X text 8 315 volume back;
#X text 23 416 volume outlet: make sure set back to 0 on mute \, otherwise
click in output;
#X obj 546 458 *~;
#X connect 0 0 1 0;
#X connect 1 0 13 0;
#X connect 2 0 1 1;
#X connect 3 0 0 0;
#X connect 3 0 59 1;
#X connect 4 0 52 0;
#X connect 4 0 60 0;
#X connect 6 0 9 0;
#X connect 6 1 2 0;
#X connect 8 0 6 0;
#X connect 9 0 52 1;
#X connect 10 0 11 0;
#X connect 11 0 0 1;
#X connect 13 0 59 0;
#X connect 13 0 29 0;
#X connect 14 0 18 0;
#X connect 15 0 16 0;
#X connect 16 0 11 1;
#X connect 16 0 39 1;
#X connect 18 0 22 0;
#X connect 19 0 11 1;
#X connect 19 0 39 1;
#X connect 19 0 63 1;
#X connect 20 0 21 0;
#X connect 20 0 24 0;
#X connect 21 0 22 1;
#X connect 22 0 19 0;
#X connect 23 0 3 0;
#X connect 23 0 50 0;
#X connect 24 0 25 0;
#X connect 25 0 22 0;
#X connect 31 0 43 0;
#X connect 32 0 31 0;
#X connect 33 0 32 0;
#X connect 34 0 33 1;
#X connect 35 0 44 0;
#X connect 36 0 34 0;
#X connect 36 0 33 0;
#X connect 37 0 36 0;
#X connect 38 0 39 0;
#X connect 39 0 37 0;
#X connect 41 0 36 1;
#X connect 42 0 34 1;
#X connect 43 0 63 0;
#X connect 44 0 42 0;
#X connect 44 0 33 2;
#X connect 45 0 48 0;
#X connect 46 0 47 0;
#X connect 47 0 49 0;
#X connect 47 1 3 0;
#X connect 48 0 3 0;
#X connect 48 1 4 0;
#X connect 48 1 51 0;
#X connect 49 0 4 0;
#X connect 50 0 49 1;
#X connect 51 0 49 1;
#X connect 52 0 0 0;
#X connect 59 0 12 0;
#X connect 60 0 59 1;
#X connect 63 0 40 0;
