#N canvas 268 39 849 628 12;
#X obj 88 236 phasor~;
#X obj 88 259 *~;
#X obj 150 265 * 44.1;
#X msg 53 127 0;
#X obj 182 186 bng 15 250 50 0 empty empty empty 17 7 0 10 -262144
-1 -1;
#X text 89 7 mute/turn on loop;
#X obj 88 170 t f f;
#X text 154 246 loop duration * SR;
#X obj 182 90 spigot;
#X obj 88 127 r loop-time;
#X obj 90 92 spigot;
#X obj 182 61 == 0;
#X obj 88 208 expr 1000 / $f1;
#X obj 357 64 r loop-position;
#X obj 357 207 spigot;
#X obj 88 334 outlet~;
#X obj 90 29 r lp-trig-\$1;
#X obj 182 29 r mute-\$1;
#X obj 88 299 tabread4~ loop-\$1;
#X obj 416 90 r mute-\$1;
#X obj 555 113 loadbang;
#X msg 555 138 0;
#X text 326 22 only send loop position when unmuted;
#X obj 182 164 spigot;
#X obj 90 57 delay 10;
#X obj 416 117 == 0;
#X text 247 73 avoid /0;
#X obj 396 183 tgl 15 0 empty empty empty 17 7 0 10 -262144 -1 -1 0
1;
#X obj 496 89 r rec-loop-\$1;
#X obj 496 114 == 1;
#X obj 396 160 &;
#X obj 7 28 r clear-\$1;
#X obj 458 117 bng 15 250 50 0 empty empty empty 17 7 0 10 -262144
-1 -1;
#X obj 458 140 delay 5;
#X text 599 53 additional bang needed on &;
#X text 599 70 because & object only reads the;
#X text 599 87 right input after a bang on the left;
#X obj 156 334 s~ read-loop-\$1;
#X obj 210 116 r play;
#X msg 210 139 1;
#X obj 261 116 r clear-loops;
#X msg 261 139 0;
#X text 195 317 for overdub;
#X obj 359 465 vline~;
#X msg 359 439 \$1 \, \$2 \$3;
#X obj 359 413 pack f f f;
#X obj 392 388 +;
#X obj 478 318 loadbang;
#X obj 359 348 f;
#X obj 359 291 sel 0;
#X obj 359 238 r counter;
#X obj 359 265 spigot;
#X obj 359 525 outlet~;
#X obj 377 317 r sample-rate;
#X obj 410 365 * 44.1;
#X obj 359 498 tabread4~ loop-\$1;
#X msg 409 342 500;
#X connect 0 0 1 0;
#X connect 1 0 18 0;
#X connect 2 0 1 1;
#X connect 3 0 0 0;
#X connect 4 0 12 0;
#X connect 6 0 12 0;
#X connect 6 1 2 0;
#X connect 8 0 23 0;
#X connect 9 0 6 0;
#X connect 10 0 3 0;
#X connect 11 0 8 1;
#X connect 12 0 0 0;
#X connect 13 0 14 0;
#X connect 14 0 0 1;
#X connect 16 0 24 0;
#X connect 17 0 11 0;
#X connect 17 0 10 1;
#X connect 18 0 15 0;
#X connect 18 0 37 0;
#X connect 19 0 25 0;
#X connect 20 0 21 0;
#X connect 21 0 14 1;
#X connect 21 0 51 1;
#X connect 23 0 4 0;
#X connect 24 0 10 0;
#X connect 24 0 8 0;
#X connect 25 0 30 0;
#X connect 27 0 14 1;
#X connect 27 0 51 1;
#X connect 28 0 29 0;
#X connect 28 0 32 0;
#X connect 29 0 30 1;
#X connect 30 0 27 0;
#X connect 31 0 3 0;
#X connect 32 0 33 0;
#X connect 33 0 30 0;
#X connect 38 0 39 0;
#X connect 39 0 23 1;
#X connect 40 0 41 0;
#X connect 41 0 23 1;
#X connect 43 0 55 0;
#X connect 44 0 43 0;
#X connect 45 0 44 0;
#X connect 46 0 45 1;
#X connect 47 0 56 0;
#X connect 48 0 46 0;
#X connect 48 0 45 0;
#X connect 49 0 48 0;
#X connect 50 0 51 0;
#X connect 51 0 49 0;
#X connect 53 0 48 1;
#X connect 54 0 46 1;
#X connect 55 0 52 0;
#X connect 56 0 54 0;
#X connect 56 0 45 2;
