#N canvas 29 372 641 384 12;
#X obj 48 243 phasor~;
#X obj 48 266 *~;
#X obj 110 265 * 44.1;
#X msg 13 127 0;
#X obj 142 179 bng 15 250 50 0 empty empty empty 17 7 0 10 -262144
-1 -1;
#X text 49 7 mute/turn on loop;
#X obj 48 177 t f f;
#X floatatom 48 153 5 0 0 0 - - -;
#X text 114 246 loop duration * SR;
#X obj 142 90 spigot;
#X obj 48 127 r loop-time;
#X obj 50 92 spigot;
#X obj 142 61 == 0;
#X obj 48 207 expr 1000 / $f1;
#X obj 287 84 r loop-position;
#X obj 287 207 spigot;
#X obj 48 344 outlet~;
#X obj 50 29 r lp-trig-\$1;
#X obj 142 29 r mute-\$1;
#X obj 48 309 tabread4~ loop-\$1;
#X obj 311 110 r mute-\$1;
#X obj 491 111 loadbang;
#X msg 491 136 0;
#X text 287 64 only send loop position when unmuted;
#X obj 181 113 r rec-loop-\$1;
#X obj 142 150 spigot;
#X obj 50 57 delay 10;
#X obj 311 134 == 0;
#X text 214 93 avoid /0;
#X obj 326 183 tgl 15 0 empty empty empty 17 7 0 10 -262144 -1 -1 0
1;
#X obj 387 110 r rec-loop-\$1;
#X obj 387 133 == 1;
#X obj 326 160 &;
#X floatatom 307 239 5 0 0 0 - - -;
#X connect 0 0 1 0;
#X connect 1 0 19 0;
#X connect 2 0 1 1;
#X connect 3 0 0 0;
#X connect 4 0 13 0;
#X connect 6 0 13 0;
#X connect 6 1 2 0;
#X connect 7 0 6 0;
#X connect 9 0 25 0;
#X connect 10 0 7 0;
#X connect 11 0 3 0;
#X connect 12 0 9 1;
#X connect 13 0 0 0;
#X connect 14 0 15 0;
#X connect 15 0 0 1;
#X connect 15 0 33 0;
#X connect 17 0 26 0;
#X connect 18 0 12 0;
#X connect 18 0 11 1;
#X connect 19 0 16 0;
#X connect 20 0 27 0;
#X connect 21 0 22 0;
#X connect 22 0 15 1;
#X connect 24 0 25 1;
#X connect 25 0 4 0;
#X connect 26 0 11 0;
#X connect 26 0 9 0;
#X connect 27 0 32 0;
#X connect 29 0 15 1;
#X connect 30 0 31 0;
#X connect 31 0 32 1;
#X connect 32 0 29 0;
