#N canvas 49 38 936 725 12;
#X obj 325 85 r mute-\$1;
#X obj 325 112 == 0;
#X obj 325 177 tgl 15 0 empty empty empty 17 7 0 10 -262144 -1 -1 0
1;
#X obj 406 86 r rec-loop-\$1;
#X obj 406 111 == 1;
#X obj 325 154 &;
#X obj 387 111 bng 15 250 50 0 empty empty empty 17 7 0 10 -262144
-1 -1;
#X obj 387 134 delay 5;
#X text 509 50 additional bang needed on &;
#X text 509 67 because & object only reads the;
#X text 509 84 right input after a bang on the left;
#X obj 426 493 vline~;
#X msg 426 467 \$1 \, \$2 \$3;
#X obj 426 441 pack f f f;
#X obj 459 417 +;
#X obj 546 304 loadbang;
#X obj 426 384 f;
#X obj 426 239 sel 0;
#X obj 426 186 r counter;
#X obj 426 213 spigot;
#X obj 426 608 outlet~;
#X obj 444 305 r sample-rate;
#X obj 546 355 * 44.1;
#X obj 426 519 tabread4~ loop-\$1;
#X msg 546 330 500;
#X text 499 186 fade-out part of the loop;
#X text 474 240 on start loop -> play fade-out;
#X text 600 329 fade-out duration \; 500ms;
#X obj 426 585 *~;
#X obj 489 608 s~ read-fade-out-\$1;
#X obj 65 7 r counter;
#X obj 145 281 r sample-rate;
#X obj 127 258 r nloops-\$1;
#X obj 127 303 *;
#X obj 94 377 pack f f f;
#X obj 179 311 r loop-time;
#X obj 161 337 *;
#X msg 94 351 0;
#X msg 94 404 \$1 \, \$2 \$3;
#X obj 94 434 vline~;
#X obj 94 463 tabread4~ loop-\$1;
#X obj 94 538 *~;
#X obj 94 567 outlet~;
#X obj 161 567 s~ read-loop-\$1;
#X obj 457 329 r nloops-\$1;
#X obj 444 355 *;
#X obj 211 144 r rec-loop-\$1;
#X msg 211 176 1;
#X obj 110 120 loadbang;
#X msg 110 174 0;
#X obj 121 145 r clear-\$1;
#X obj 114 210 spigot;
#X obj 63 210 spigot;
#X obj 114 233 delay 5;
#X msg 157 175 1;
#X msg 246 175 0;
#X obj 131 61 r nloops-\$1;
#X obj 216 7 loadbang;
#X obj 137 7 r clear-\$1;
#X msg 172 33 1;
#X obj 65 155 bng 15 250 50 0 empty empty empty 17 7 0 10 -262144 -1
-1;
#X obj 65 34 sel 0;
#X obj 65 62 f;
#X obj 99 62 + 1;
#X obj 65 94 select;
#X msg 137 33 0;
#X msg 25 33 0;
#X obj 426 262 f;
#X obj 467 262 + 1;
#X obj 426 285 sel;
#X obj 502 262 r nloops-\$1;
#X msg 391 239 0;
#X obj 11 400 line;
#X obj 11 378 t a b;
#X obj 11 423 s loop-vol;
#X msg 11 354 0 \, 1 5;
#X obj 94 515 *~;
#X obj 112 488 r loop-vol;
#X msg 340 385 1 \, 0 500;
#X obj 340 408 t a b;
#X obj 340 431 line;
#X obj 340 454 s fade-out;
#X obj 426 563 *~;
#X obj 444 541 r fade-out;
#X connect 0 0 1 0;
#X connect 1 0 5 0;
#X connect 2 0 19 1;
#X connect 2 0 28 1;
#X connect 2 0 41 1;
#X connect 3 0 4 0;
#X connect 3 0 6 0;
#X connect 4 0 5 1;
#X connect 5 0 2 0;
#X connect 6 0 7 0;
#X connect 7 0 5 0;
#X connect 11 0 23 0;
#X connect 12 0 11 0;
#X connect 13 0 12 0;
#X connect 14 0 13 1;
#X connect 15 0 24 0;
#X connect 16 0 14 0;
#X connect 16 0 13 0;
#X connect 17 0 67 0;
#X connect 18 0 19 0;
#X connect 19 0 17 0;
#X connect 21 0 45 0;
#X connect 22 0 14 1;
#X connect 23 0 82 0;
#X connect 24 0 22 0;
#X connect 24 0 13 2;
#X connect 28 0 20 0;
#X connect 28 0 29 0;
#X connect 30 0 61 0;
#X connect 31 0 33 1;
#X connect 32 0 33 0;
#X connect 32 0 36 0;
#X connect 33 0 34 1;
#X connect 34 0 38 0;
#X connect 35 0 36 1;
#X connect 36 0 34 2;
#X connect 37 0 34 0;
#X connect 38 0 39 0;
#X connect 39 0 40 0;
#X connect 40 0 76 0;
#X connect 41 0 42 0;
#X connect 41 0 43 0;
#X connect 44 0 45 1;
#X connect 45 0 16 1;
#X connect 46 0 47 0;
#X connect 46 0 55 0;
#X connect 47 0 52 1;
#X connect 48 0 49 0;
#X connect 48 0 54 0;
#X connect 49 0 52 1;
#X connect 50 0 49 0;
#X connect 50 0 54 0;
#X connect 51 0 53 0;
#X connect 52 0 37 0;
#X connect 53 0 37 0;
#X connect 54 0 51 1;
#X connect 55 0 51 1;
#X connect 56 0 64 1;
#X connect 57 0 59 0;
#X connect 57 0 65 0;
#X connect 58 0 59 0;
#X connect 58 0 65 0;
#X connect 59 0 64 1;
#X connect 60 0 51 0;
#X connect 60 0 52 0;
#X connect 60 0 75 0;
#X connect 61 0 62 0;
#X connect 62 0 63 0;
#X connect 62 0 64 0;
#X connect 63 0 62 1;
#X connect 64 0 60 0;
#X connect 64 0 66 0;
#X connect 65 0 62 0;
#X connect 66 0 62 0;
#X connect 67 0 68 0;
#X connect 67 0 69 0;
#X connect 68 0 67 1;
#X connect 69 0 16 0;
#X connect 69 0 71 0;
#X connect 69 0 78 0;
#X connect 70 0 69 1;
#X connect 71 0 67 0;
#X connect 72 0 74 0;
#X connect 73 0 72 0;
#X connect 75 0 73 0;
#X connect 76 0 41 0;
#X connect 77 0 76 1;
#X connect 78 0 79 0;
#X connect 79 0 80 0;
#X connect 80 0 81 0;
#X connect 82 0 28 0;
#X connect 83 0 82 1;
