#N canvas 693 403 729 441 12;
#X obj 76 83 bng 45 250 50 0 lp-trig-1 button-1 empty 17 7 0 10 -262144
-1 -1;
#X obj 150 83 bng 45 250 50 0 lp-trig-2 button-2 empty 17 7 0 10 -262144
-1 -1;
#X obj 219 84 bng 45 250 50 0 lp-trig-3 button-3 empty 17 7 0 10 -262144
-1 -1;
#X obj 290 84 bng 45 250 50 0 lp-trig-4 button-4 empty 17 7 0 10 -262144
-1 -1;
#X obj 76 163 bng 45 250 50 0 lp-trig-5 button-5 empty 17 7 0 10 -262144
-1 -1;
#X obj 150 163 bng 45 250 50 0 lp-trig-6 button-6 empty 17 7 0 10 -262144
-1 -1;
#X obj 219 164 bng 45 250 50 0 lp-trig-7 button-7 empty 17 7 0 10 -262144
-1 -1;
#X obj 290 164 bng 45 250 50 0 lp-trig-8 button-8 empty 17 7 0 10 -262144
-1 -1;
#X obj 77 249 bng 45 250 50 0 kick-button-1 button-9 kick_1 0 55 0
10 -4034 -1 -1;
#X obj 150 249 bng 45 250 50 0 snare-button-1 button-10 snare_1 0 55
0 10 -258113 -1 -1;
#X obj 219 250 bng 45 250 50 0 hh-button-1 button-11 Highhat_1 0 55
0 9 -4160 -1 -1;
#X obj 290 250 bng 45 250 50 0 crash-button-1 button-12 Crash_1 0 55
0 10 -4032 -1 -1;
#X obj 78 321 bng 45 250 50 0 kick-button-2 button-0 kick_2 0 55 0
10 -4034 -1 -1;
#X obj 151 321 bng 45 250 50 0 snare-button-2 button-14 snare_2 0 55
0 10 -258113 -1 -1;
#X obj 220 322 bng 45 250 50 0 hh-button-2 button-15 Highhat_2 0 55
0 9 -4160 -1 -1;
#X obj 292 322 bng 45 250 50 0 crash-button-2 button-16 Crash_2 0 55
0 10 -4032 -1 -1;
#X obj 126 83 bng 15 250 50 0 clear-1 empty empty 17 7 0 10 -258113
-1 -1;
#X obj 198 83 bng 15 250 50 0 clear-2 empty empty 17 7 0 10 -258113
-1 -1;
#X obj 268 84 bng 15 250 50 0 clear-3 empty empty 17 7 0 10 -258113
-1 -1;
#X obj 341 85 bng 15 250 50 0 clear-4 empty empty 17 7 0 10 -258113
-1 -1;
#X obj 126 163 bng 15 250 50 0 clear-5 empty empty 17 7 0 10 -258113
-1 -1;
#X obj 198 163 bng 15 250 50 0 clear-6 empty empty 17 7 0 10 -258113
-1 -1;
#X obj 268 164 bng 15 250 50 0 clear-7 empty empty 17 7 0 10 -258113
-1 -1;
#X obj 341 165 bng 15 250 50 0 clear-8 empty empty 17 7 0 10 -258113
-1 -1;
#N canvas 296 157 1144 562 router 0;
#X obj 169 41 netreceive 3000;
#X obj 188 72 print received;
#X obj 193 222 s selected_kit;
#X obj 207 168 loadbang;
#X msg 207 197 1;
#X text 167 17 Open socket for Python input;
#X obj 61 221 s dsp_status;
#X obj 31 156 loadbang;
#X msg 31 193 1;
#X text 7 133 init value DSP: on;
#X text 205 147 init value kit: 1;
#X text 363 131 button presses 1-8: loop 9-16: drum;
#X obj 364 534 s button-1;
#X obj 364 146 select 1 2 3 4 5 6 7 8 9 10 11 12 13 14 15 16;
#X obj 383 511 s button-2;
#X obj 403 487 s button-3;
#X obj 422 464 s button-4;
#X obj 442 439 s button-5;
#X obj 461 416 s button-6;
#X obj 481 392 s button-7;
#X obj 500 369 s button-8;
#X obj 520 345 s button-9;
#X obj 539 322 s button-10;
#X obj 559 298 s button-11;
#X obj 578 275 s button-12;
#X obj 598 251 s button-13;
#X obj 617 228 s button-14;
#X obj 637 204 s button-15;
#X obj 656 182 s button-16;
#X text 316 54 active connections;
#X floatatom 320 73 5 0 0 0 - - -;
#X obj 169 102 route 0 1 2 3;
#X obj 790 135 s signature;
#X obj 790 86 loadbang;
#X msg 790 111 4;
#X text 787 52 the signature (maatsoort);
#X text 788 68 integer value;
#X connect 0 0 1 0;
#X connect 0 0 31 0;
#X connect 0 1 30 0;
#X connect 3 0 4 0;
#X connect 4 0 2 0;
#X connect 7 0 8 0;
#X connect 8 0 6 0;
#X connect 13 0 12 0;
#X connect 13 1 14 0;
#X connect 13 2 15 0;
#X connect 13 3 16 0;
#X connect 13 4 17 0;
#X connect 13 5 18 0;
#X connect 13 6 19 0;
#X connect 13 7 20 0;
#X connect 13 8 21 0;
#X connect 13 9 22 0;
#X connect 13 10 23 0;
#X connect 13 11 24 0;
#X connect 13 12 25 0;
#X connect 13 13 26 0;
#X connect 13 14 27 0;
#X connect 13 15 28 0;
#X connect 31 0 6 0;
#X connect 31 1 2 0;
#X connect 31 2 13 0;
#X connect 31 3 32 0;
#X connect 33 0 34 0;
#X connect 34 0 32 0;
#X restore 382 68 pd router;
#N canvas 67 95 886 641 drumbox 0;
#X obj 32 29 r selected_kit;
#N canvas 7 188 1418 565 load_sounds 0;
#X obj 768 25 inlet;
#N canvas 0 22 450 278 (subpatch) 0;
#X array kick-1 162240 float 2;
#X coords 0 0.1 162240 -0.1 100 50 1 0 0;
#X restore 36 219 graph;
#X obj 36 114 soundfiler;
#X floatatom 36 147 10 0 0 0 - - -;
#X msg 36 79 read -resize drum_sounds/kick_\$1_1.wav kick-1;
#X msg 37 296 read -resize drum_sounds/kick_\$1_2.wav kick-2;
#X obj 37 327 soundfiler;
#N canvas 0 22 450 278 (subpatch) 0;
#X array kick-2 135040 float 2;
#X coords 0 0.1 135040 -0.1 100 50 1 0 0;
#X restore 38 431 graph;
#X floatatom 37 361 10 0 0 0 - - -;
#X obj 36 180 s end-kick-1;
#X obj 37 392 s end-kick-2;
#X obj 422 111 soundfiler;
#N canvas 0 22 450 278 (subpatch) 0;
#X array snare-1 39424 float 2;
#X coords 0 0.1 39424 -0.1 100 50 1 0 0;
#X restore 423 215 graph;
#X floatatom 422 145 10 0 0 0 - - -;
#X msg 422 80 read -resize drum_sounds/snare_\$1_1.wav snare-1;
#X obj 422 176 s end-snare-1;
#X obj 422 327 soundfiler;
#N canvas 0 22 450 278 (subpatch) 0;
#X array snare-2 38784 float 2;
#X coords 0 0.1 38784 -0.1 100 50 1 0 0;
#X restore 423 431 graph;
#X floatatom 422 361 10 0 0 0 - - -;
#X msg 422 296 read -resize drum_sounds/snare_\$1_2.wav snare-2;
#X obj 422 392 s end-snare-2;
#X obj 787 112 soundfiler;
#N canvas 0 22 450 278 (subpatch) 0;
#X array hh-1 25600 float 2;
#X coords 0 0.1 25600 -0.1 100 50 1 0 0;
#X restore 788 216 graph;
#X floatatom 787 146 10 0 0 0 - - -;
#X obj 787 328 soundfiler;
#N canvas 0 22 450 278 (subpatch) 0;
#X array hh-2 26688 float 2;
#X coords 0 0.1 26688 -0.1 100 50 1 0 0;
#X restore 788 432 graph;
#X floatatom 787 362 10 0 0 0 - - -;
#X msg 787 81 read -resize drum_sounds/hh_\$1_1.wav hh-1;
#X obj 787 177 s end-hh-1;
#X msg 787 297 read -resize drum_sounds/hh_\$1_2.wav hh-2;
#X obj 787 393 s end-hh-2;
#X obj 1120 112 soundfiler;
#N canvas 0 22 450 278 (subpatch) 0;
#X array crash-1 389184 float 2;
#X coords 0 0.1 389184 -0.1 100 50 1 0 0;
#X restore 1121 216 graph;
#X floatatom 1120 146 10 0 0 0 - - -;
#X obj 1120 328 soundfiler;
#N canvas 0 22 450 278 (subpatch) 0;
#X array crash-2 421760 float 2;
#X coords 0 0.1 421760 -0.1 100 50 1 0 0;
#X restore 1121 432 graph;
#X floatatom 1120 362 10 0 0 0 - - -;
#X msg 1120 81 read -resize drum_sounds/crash_\$1_1.wav crash-1;
#X obj 1120 177 s end-crash-1;
#X msg 1120 297 read -resize drum_sounds/crash_\$1_2.wav crash-2;
#X obj 1120 393 s end-crash-2;
#X text 692 4 input: int value of selected_kit;
#X connect 0 0 4 0;
#X connect 0 0 5 0;
#X connect 0 0 14 0;
#X connect 0 0 19 0;
#X connect 0 0 27 0;
#X connect 0 0 29 0;
#X connect 0 0 37 0;
#X connect 0 0 39 0;
#X connect 2 0 3 0;
#X connect 3 0 9 0;
#X connect 4 0 2 0;
#X connect 5 0 6 0;
#X connect 6 0 8 0;
#X connect 8 0 10 0;
#X connect 11 0 13 0;
#X connect 13 0 15 0;
#X connect 14 0 11 0;
#X connect 16 0 18 0;
#X connect 18 0 20 0;
#X connect 19 0 16 0;
#X connect 21 0 23 0;
#X connect 23 0 28 0;
#X connect 24 0 26 0;
#X connect 26 0 30 0;
#X connect 27 0 21 0;
#X connect 29 0 24 0;
#X connect 31 0 33 0;
#X connect 33 0 38 0;
#X connect 34 0 36 0;
#X connect 36 0 40 0;
#X connect 37 0 31 0;
#X connect 39 0 34 0;
#X restore 32 103 pd load_sounds;
#X obj 32 343 vline~;
#X msg 32 312 \$1 \, \$2 \$3;
#X msg 32 231 0;
#X obj 32 262 pack f f f;
#X text 39 291 start \, end \, duration;
#X obj 171 231 / 44.1;
#X obj 32 427 *~;
#X obj 32 191 r kick-button-1;
#X obj 32 455 dac~;
#X obj 65 231 r end-kick-1;
#X obj 171 207 r end-kick-1;
#X obj 32 373 tabread4~ kick-1;
#X obj 30 651 vline~;
#X msg 30 620 \$1 \, \$2 \$3;
#X msg 30 539 0;
#X obj 30 570 pack f f f;
#X obj 169 539 / 44.1;
#X obj 30 735 *~;
#X obj 30 763 dac~;
#X obj 30 499 r kick-button-2;
#X obj 169 515 r end-kick-2;
#X obj 63 539 r end-kick-2;
#X obj 30 681 tabread4~ kick-2;
#X obj 48 707 r kick_vol;
#X obj 193 102 s kick_vol;
#X obj 193 30 loadbang;
#X obj 50 400 r kick_vol;
#X text 29 8 python input (int);
#X obj 293 338 vline~;
#X msg 293 307 \$1 \, \$2 \$3;
#X msg 293 226 0;
#X obj 293 257 pack f f f;
#X obj 432 226 / 44.1;
#X obj 293 422 *~;
#X obj 293 450 dac~;
#X obj 291 646 vline~;
#X msg 291 615 \$1 \, \$2 \$3;
#X msg 291 534 0;
#X obj 291 565 pack f f f;
#X obj 430 534 / 44.1;
#X obj 291 730 *~;
#X obj 291 758 dac~;
#X obj 293 186 r snare-button-1;
#X obj 326 226 r end-snare-1;
#X obj 432 202 r end-snare-1;
#X obj 293 368 tabread4~ snare-1;
#X obj 311 395 r snare_vol;
#X obj 291 494 r snare-button-2;
#X obj 430 510 r end-snare-2;
#X obj 324 534 r end-snare-2;
#X obj 291 676 tabread4~ snare-2;
#X obj 309 702 r snare_vol;
#X obj 561 338 vline~;
#X msg 561 307 \$1 \, \$2 \$3;
#X msg 561 226 0;
#X obj 561 257 pack f f f;
#X obj 700 226 / 44.1;
#X obj 561 422 *~;
#X obj 561 450 dac~;
#X obj 559 646 vline~;
#X msg 559 615 \$1 \, \$2 \$3;
#X msg 559 534 0;
#X obj 559 565 pack f f f;
#X obj 698 534 / 44.1;
#X obj 559 730 *~;
#X obj 559 758 dac~;
#X obj 561 186 r hh-button-1;
#X obj 700 202 r end-hh-1;
#X obj 594 226 r end-hh-1;
#X obj 561 368 tabread4~ hh-1;
#X obj 579 395 r hh_vol;
#X obj 559 494 r hh-button-2;
#X obj 698 510 r end-hh-2;
#X obj 592 534 r end-hh-2;
#X obj 559 676 tabread4~ hh-2;
#X obj 577 702 r hh_vol;
#X obj 810 334 vline~;
#X msg 810 303 \$1 \, \$2 \$3;
#X msg 810 222 0;
#X obj 810 253 pack f f f;
#X obj 949 222 / 44.1;
#X obj 810 418 *~;
#X obj 810 446 dac~;
#X obj 808 642 vline~;
#X msg 808 611 \$1 \, \$2 \$3;
#X msg 808 530 0;
#X obj 808 561 pack f f f;
#X obj 947 530 / 44.1;
#X obj 808 726 *~;
#X obj 808 754 dac~;
#X obj 810 182 r crash-button-1;
#X obj 949 198 r end-crash-1;
#X obj 843 222 r end-crash-1;
#X obj 810 364 tabread4~ crash-1;
#X obj 828 391 r crash_vol;
#X obj 947 506 r end-crash-2;
#X obj 808 490 r crash-button-2;
#X obj 808 672 tabread4~ crash-2;
#X obj 826 698 r crash_vol;
#X obj 297 100 s snare_vol;
#X obj 400 100 s hh_vol;
#X obj 492 99 s crash_vol;
#X obj 841 530 r end-crash-2;
#X text 106 160 Kick 1 and 2;
#X text 354 157 Snare 1 and 2;
#X text 609 157 High Hat 1 and 2;
#X text 861 154 Crash 1 and 2;
#X text 195 8 setup default values for volume (to be adjusted later)
;
#X msg 193 68 1;
#X msg 297 68 1;
#X msg 400 67 1;
#X msg 492 66 1;
#X obj 801 101 s~ drums;
#X obj 82 455 s~ kick-1;
#X obj 75 762 s~ kick-2;
#X obj 341 450 s~ snare-1;
#X obj 341 758 s~ snare-2;
#X obj 612 452 s~ hh-1;
#X obj 605 759 s~ hh-2;
#X obj 856 446 s~ crash-1;
#X obj 854 754 s~ crash-2;
#X obj 664 38 r~ kick-1;
#X obj 665 62 r~ kick-2;
#X obj 754 38 r~ snare-1;
#X obj 755 61 r~ snare-2;
#X obj 851 39 r~ hh-1;
#X obj 851 65 r~ hh-2;
#X obj 921 41 r~ crash-1;
#X obj 921 64 r~ crash-2;
#X text 762 11 output to loop input;
#X connect 0 0 1 0;
#X connect 2 0 13 0;
#X connect 3 0 2 0;
#X connect 4 0 5 0;
#X connect 5 0 3 0;
#X connect 7 0 5 2;
#X connect 8 0 10 0;
#X connect 8 0 10 1;
#X connect 8 0 115 0;
#X connect 9 0 4 0;
#X connect 11 0 5 1;
#X connect 12 0 7 0;
#X connect 13 0 8 0;
#X connect 14 0 24 0;
#X connect 15 0 14 0;
#X connect 16 0 17 0;
#X connect 17 0 15 0;
#X connect 18 0 17 2;
#X connect 19 0 20 0;
#X connect 19 0 20 1;
#X connect 19 0 116 0;
#X connect 21 0 16 0;
#X connect 22 0 18 0;
#X connect 23 0 17 1;
#X connect 24 0 19 0;
#X connect 25 0 19 1;
#X connect 27 0 110 0;
#X connect 27 0 111 0;
#X connect 27 0 112 0;
#X connect 27 0 113 0;
#X connect 28 0 8 1;
#X connect 30 0 47 0;
#X connect 31 0 30 0;
#X connect 32 0 33 0;
#X connect 33 0 31 0;
#X connect 34 0 33 2;
#X connect 35 0 36 0;
#X connect 35 0 36 1;
#X connect 35 0 117 0;
#X connect 37 0 52 0;
#X connect 38 0 37 0;
#X connect 39 0 40 0;
#X connect 40 0 38 0;
#X connect 41 0 40 2;
#X connect 42 0 43 0;
#X connect 42 0 43 1;
#X connect 42 0 118 0;
#X connect 44 0 32 0;
#X connect 45 0 33 1;
#X connect 46 0 34 0;
#X connect 47 0 35 0;
#X connect 48 0 35 1;
#X connect 49 0 39 0;
#X connect 50 0 41 0;
#X connect 51 0 40 1;
#X connect 52 0 42 0;
#X connect 53 0 42 1;
#X connect 54 0 71 0;
#X connect 55 0 54 0;
#X connect 56 0 57 0;
#X connect 57 0 55 0;
#X connect 58 0 57 2;
#X connect 59 0 60 0;
#X connect 59 0 60 1;
#X connect 59 0 119 0;
#X connect 61 0 76 0;
#X connect 62 0 61 0;
#X connect 63 0 64 0;
#X connect 64 0 62 0;
#X connect 65 0 64 2;
#X connect 66 0 67 0;
#X connect 66 0 67 1;
#X connect 66 0 120 0;
#X connect 68 0 56 0;
#X connect 69 0 58 0;
#X connect 70 0 57 1;
#X connect 71 0 59 0;
#X connect 72 0 59 1;
#X connect 73 0 63 0;
#X connect 74 0 65 0;
#X connect 75 0 64 1;
#X connect 76 0 66 0;
#X connect 77 0 66 1;
#X connect 78 0 95 0;
#X connect 79 0 78 0;
#X connect 80 0 81 0;
#X connect 81 0 79 0;
#X connect 82 0 81 2;
#X connect 83 0 84 0;
#X connect 83 0 84 1;
#X connect 83 0 121 0;
#X connect 85 0 99 0;
#X connect 86 0 85 0;
#X connect 87 0 88 0;
#X connect 88 0 86 0;
#X connect 89 0 88 2;
#X connect 90 0 91 0;
#X connect 90 0 91 1;
#X connect 90 0 122 0;
#X connect 92 0 80 0;
#X connect 93 0 82 0;
#X connect 94 0 81 1;
#X connect 95 0 83 0;
#X connect 96 0 83 1;
#X connect 97 0 89 0;
#X connect 98 0 87 0;
#X connect 99 0 90 0;
#X connect 100 0 90 1;
#X connect 104 0 88 1;
#X connect 110 0 26 0;
#X connect 111 0 101 0;
#X connect 112 0 102 0;
#X connect 113 0 103 0;
#X connect 123 0 114 0;
#X connect 124 0 114 0;
#X connect 125 0 114 0;
#X connect 126 0 114 0;
#X connect 127 0 114 0;
#X connect 128 0 114 0;
#X connect 129 0 114 0;
#X connect 130 0 114 0;
#X restore 378 278 pd drumbox;
#X text 376 257 drumbox logic;
#X floatatom 380 324 5 0 0 0 - selected-kit -;
#X msg 14 35 \; pd dsp \$1;
#X obj 14 9 tgl 15 0 empty dsp_status empty 17 7 0 10 -262144 -1 -1
1 1;
#X text 381 45 python input router and init values;
#X text 38 8 toggle sound;
#X obj 76 133 loop 1;
#X obj 150 133 loop 2;
#X obj 219 134 loop 3;
#X obj 290 134 loop 4;
#X obj 76 212 loop 5;
#X obj 150 212 loop 6;
#X obj 219 213 loop 7;
#X obj 290 213 loop 8;
#N canvas 31 302 725 480 init_loop 0;
#X obj 96 205 r lp-trig-1;
#X obj 86 182 r lp-trig-2;
#X obj 77 160 r lp-trig-3;
#X obj 64 137 r lp-trig-4;
#X obj 50 114 r lp-trig-5;
#X obj 36 93 r lp-trig-6;
#X obj 21 71 r lp-trig-7;
#X obj 6 50 r lp-trig-8;
#X obj 96 260 bng 15 250 50 0 empty empty empty 17 7 0 10 -262144 -1
-1;
#X obj 96 320 f;
#X obj 96 360 sel 0 1;
#X floatatom 168 361 5 0 0 0 - - -;
#X obj 96 401 s press-one;
#X obj 192 401 s press-two;
#X obj 135 319 + 1;
#X obj 367 125 r press-one;
#X obj 367 178 timer;
#X obj 473 125 r press-two;
#X obj 367 376 s loop-time;
#X obj 367 345 spigot;
#X text 391 236 only send loop time if it does not exist yet;
#X obj 454 270 r clear-loops;
#X text 435 101 Timer;
#X msg 454 297 1;
#X obj 496 296 r loop-time;
#X msg 496 322 0;
#X obj 387 270 loadbang;
#X obj 473 176 s play;
#X msg 135 289 0;
#X text 181 32 This is for the initial loop tempo. The function checks
the first and second press of the button and sends play if the second
push has been done.;
#X obj 235 263 loadbang;
#X text 9 421 first press on the button;
#X text 192 421 second press on the button;
#X obj 135 263 r clear-loops;
#X obj 258 125 r clear-loops;
#X msg 258 151 0;
#X connect 0 0 8 0;
#X connect 1 0 8 0;
#X connect 2 0 8 0;
#X connect 3 0 8 0;
#X connect 4 0 8 0;
#X connect 5 0 8 0;
#X connect 6 0 8 0;
#X connect 7 0 8 0;
#X connect 8 0 9 0;
#X connect 9 0 11 0;
#X connect 9 0 10 0;
#X connect 9 0 14 0;
#X connect 10 0 12 0;
#X connect 10 1 13 0;
#X connect 14 0 9 1;
#X connect 15 0 16 0;
#X connect 16 0 19 0;
#X connect 17 0 16 1;
#X connect 17 0 27 0;
#X connect 19 0 18 0;
#X connect 21 0 23 0;
#X connect 23 0 19 1;
#X connect 24 0 25 0;
#X connect 25 0 19 1;
#X connect 26 0 23 0;
#X connect 28 0 9 1;
#X connect 30 0 28 0;
#X connect 33 0 28 0;
#X connect 34 0 35 0;
#X connect 35 0 18 0;
#X restore 382 113 pd init_loop;
#N canvas 375 388 450 300 metronome 0;
#X obj 99 39 r play;
#X restore 382 142 pd metronome;
#X text 380 92 First loop: timer;
#X obj 160 8 bng 15 250 50 0 empty empty empty 17 7 0 10 -262144 -1
-1;
#X floatatom 503 93 8 0 0 0 - loop-time -;
#X text 377 305 kit:;
#N canvas 102 308 450 300 clear-loops 0;
#X obj 25 84 s clear-1;
#X obj 25 111 s clear-2;
#X obj 116 84 s clear-3;
#X obj 116 111 s clear-4;
#X obj 201 84 s clear-5;
#X obj 201 111 s clear-6;
#X obj 280 84 s clear-7;
#X obj 280 111 s clear-8;
#X obj 101 42 inlet;
#X obj 107 158 s clear-loops;
#X obj 100 190 print all-loops-cleared;
#X connect 8 0 0 0;
#X connect 8 0 1 0;
#X connect 8 0 2 0;
#X connect 8 0 3 0;
#X connect 8 0 4 0;
#X connect 8 0 5 0;
#X connect 8 0 6 0;
#X connect 8 0 7 0;
#X connect 8 0 9 0;
#X connect 8 0 10 0;
#X restore 160 30 pd clear-loops;
#N canvas 781 348 575 454 loop_player 1;
#N canvas 18 86 971 236 combine_loops 0;
#X obj 19 43 loop_output 1;
#X obj 132 43 loop_output 2;
#X obj 240 43 loop_output 3;
#X obj 353 43 loop_output 4;
#X obj 467 43 loop_output 5;
#X obj 580 43 loop_output 6;
#X obj 689 40 loop_output 7;
#X obj 802 40 loop_output 8;
#X obj 19 100 *~;
#X obj 132 101 *~;
#X obj 240 99 *~;
#X obj 353 96 *~;
#X obj 467 95 *~;
#X obj 580 94 *~;
#X obj 689 91 *~;
#X obj 802 91 *~;
#X obj 491 183 *~;
#X obj 569 179 r loop-vol;
#X obj 487 212 dac~;
#X connect 0 0 8 0;
#X connect 1 0 9 0;
#X connect 2 0 10 0;
#X connect 3 0 11 0;
#X connect 4 0 12 0;
#X connect 5 0 13 0;
#X connect 6 0 14 0;
#X connect 7 0 15 0;
#X connect 8 0 16 0;
#X connect 9 0 16 0;
#X connect 10 0 16 0;
#X connect 11 0 16 0;
#X connect 12 0 16 0;
#X connect 13 0 16 0;
#X connect 14 0 16 0;
#X connect 15 0 16 0;
#X connect 16 0 18 0;
#X connect 16 0 18 1;
#X connect 17 0 16 1;
#X restore 254 41 pd combine_loops;
#X obj 28 351 hsl 128 15 0 1 0 0 empty empty empty -2 -8 0 10 -262144
-1 -1 0 1;
#X text 32 330 timer, f 6;
#X obj 25 377 s loop-position;
#X text 23 19 Loop position and metronome;
#X text 255 20 Play loops:;
#X obj 25 195 *~;
#X obj 25 243 snapshot~;
#X obj 62 215 metro 50;
#X obj 25 300 /;
#X obj 25 127 phasor~;
#X obj 25 74 t f;
#X obj 62 195 tgl 15 0 empty empty empty 17 7 0 10 -262144 -1 -1 1
1;
#X obj 25 100 expr 44100 / $f1;
#X obj 409 42 r loop-time;
#X obj 409 90 s sample-rate;
#X obj 25 46 r sample-rate;
#X obj 43 160 r sample-rate;
#X obj 43 274 r sample-rate;
#X msg 149 100 0;
#X obj 149 47 r play;
#X obj 409 65 * 44.1;
#X obj 86 181 loadbang;
#X obj 249 230 metro;
#X msg 191 100 1;
#X msg 249 159 0;
#X obj 249 255 f;
#X obj 289 255 + 1;
#X obj 249 314 mod;
#X obj 281 206 /;
#X text 247 112 metronome;
#X text 407 21 loop time to samples;
#X obj 249 134 r clear-loops;
#X obj 249 341 hradio 15 1 0 4 empty empty empty 0 -8 0 10 -262144
-1 -1 0;
#X msg 281 314 number \$1;
#X obj 249 367 s counter;
#X obj 267 279 r signature;
#X obj 299 182 r signature;
#X obj 281 159 r loop-time;
#X obj 331 367 print counter;
#X connect 1 0 3 0;
#X connect 6 0 7 0;
#X connect 7 0 9 0;
#X connect 8 0 7 0;
#X connect 9 0 1 0;
#X connect 10 0 6 0;
#X connect 11 0 13 0;
#X connect 12 0 8 0;
#X connect 13 0 10 0;
#X connect 14 0 21 0;
#X connect 16 0 11 0;
#X connect 17 0 6 1;
#X connect 18 0 9 1;
#X connect 19 0 10 1;
#X connect 20 0 19 0;
#X connect 20 0 24 0;
#X connect 21 0 15 0;
#X connect 22 0 12 0;
#X connect 23 0 26 0;
#X connect 24 0 23 0;
#X connect 25 0 23 0;
#X connect 25 0 26 1;
#X connect 26 0 27 0;
#X connect 26 0 28 0;
#X connect 27 0 26 1;
#X connect 28 0 33 0;
#X connect 29 0 23 1;
#X connect 32 0 25 0;
#X connect 33 0 35 0;
#X connect 33 0 39 0;
#X connect 34 0 33 0;
#X connect 36 0 28 1;
#X connect 36 0 34 0;
#X connect 37 0 29 1;
#X connect 38 0 29 0;
#X restore 382 171 pd loop_player;
#X obj 127 103 tgl 15 0 empty mute-1 empty 17 7 0 10 -4032 -1 -1 0
1;
#X obj 198 103 tgl 15 0 empty mute-2 empty 17 7 0 10 -4032 -1 -1 0
1;
#X obj 297 29 hsl 50 15 0 1 0 0 loop-vol empty empty -2 -8 0 10 -262144
-1 -1 4900 1;
#X text 283 9 loop volume;
#X obj 269 103 tgl 15 0 empty mute-3 empty 17 7 0 10 -4032 -1 -1 0
1;
#X obj 341 105 tgl 15 0 empty mute-4 empty 17 7 0 10 -4032 -1 -1 0
1;
#X obj 126 183 tgl 15 0 empty mute-5 empty 17 7 0 10 -4032 -1 -1 0
1;
#X obj 199 184 tgl 15 0 empty mute-6 empty 17 7 0 10 -4032 -1 -1 0
1;
#X obj 268 184 tgl 15 0 empty mute-7 empty 17 7 0 10 -4032 -1 -1 0
1;
#X obj 341 184 tgl 15 0 empty mute-8 empty 17 7 0 10 -4032 -1 -1 0
1;
#X obj 127 124 tgl 15 0 empty rec-loop-1 empty 17 7 0 10 -4034 -1 -1
0 1;
#X obj 199 125 tgl 15 0 empty rec-loop-2 empty 17 7 0 10 -4034 -1 -1
0 1;
#X obj 269 125 tgl 15 0 empty rec-loop-3 empty 17 7 0 10 -4034 -1 -1
0 1;
#X obj 341 126 tgl 15 0 empty rec-loop-4 empty 17 7 0 10 -4034 -1 -1
0 1;
#X obj 126 204 tgl 15 0 empty rec-loop-5 empty 17 7 0 10 -4034 -1 -1
0 1;
#X obj 199 204 tgl 15 0 empty rec-loop-6 empty 17 7 0 10 -4034 -1 -1
0 1;
#X obj 269 204 tgl 15 0 empty rec-loop-7 empty 17 7 0 10 -4034 -1 -1
0 1;
#X obj 341 205 tgl 15 0 empty rec-loop-8 empty 17 7 0 10 -4034 -1 -1
0 1;
#N canvas 990 25 450 294 send_msg 1;
#X obj 255 10 r counter;
#X obj 24 11 loadbang;
#X obj 24 250 netsend;
#X floatatom 24 273 5 0 0 0 - - -;
#X msg 24 44 connect 127.0.0.1 4000;
#X msg 44 76 disconnect;
#X msg 255 42 send counter|\$1;
#X connect 0 0 6 0;
#X connect 1 0 4 0;
#X connect 2 0 3 0;
#X connect 4 0 2 0;
#X connect 5 0 2 0;
#X connect 6 0 2 0;
#X restore 381 199 pd send_msg;
#X connect 29 0 28 0;
#X connect 43 0 46 0;
